# xmcd
#
# Track frame offsets: 
#        150
#        31721
#        58156
#        87370
#        114525
#        130116
#        153663
#        166104
#        183540
#        199928
#        215580
#
# Disc length: 3119 seconds
#
# Revision: 0
# Processed by: cddbd v1.5.2PL0 Copyright (c) Steve Scherf et al.
# Submitted via: ExactAudioCopyFreeDBPlugin 1.0
#
DISCID=970c2d0b
DTITLE=B.T. Express - Energy To Burn
DYEAR=1976
DGENRE=Funk
TTITLE0=Depend On Yourself
TTITLE1=Can't Stop Groovin' Now, Wanna Do It Some More
TTITLE2=Now That We Found Love
TTITLE3=Energy To Burn
TTITLE4=Time Tunnel
TTITLE5=Make Your Body Move
TTITLE6=Herbs
TTITLE7=Energy Level
TTITLE8=Can't Stop Groovin' Now, Wanna Do It Some More (Original Singl
TTITLE8=e Version)
TTITLE9=Energy To Burn (Original Single Version)
TTITLE10=Make Your Body Move (Original Single Version)
EXTD=
EXTT0=
EXTT1=
EXTT2=
EXTT3=
EXTT4=
EXTT5=
EXTT6=
EXTT7=
EXTT8=
EXTT9=
EXTT10=
PLAYORDER=
